<mxfile host="Electron" modified="2025-03-06T07:36:12.092Z" agent="Mozilla/5.0 (Windows NT 10.0; Win64; x64) AppleWebKit/537.36 (KHTML, like Gecko) draw.io/24.4.0 Chrome/120.0.6099.109 Electron/28.1.0 Safari/537.36" etag="tyKm3gGG8OYXgmhMdrDB" version="24.4.0" type="device">
  <diagram name="Страница — 1" id="oNSQphY6V1C1J_sSc9nz">
    <mxGraphModel dx="1036" dy="614" grid="1" gridSize="10" guides="1" tooltips="1" connect="1" arrows="1" fold="1" page="1" pageScale="1" pageWidth="827" pageHeight="1169" math="0" shadow="0">
      <root>
        <mxCell id="0" />
        <mxCell id="1" parent="0" />
        <mxCell id="BUnVJWdyUu6qBVvsBm_c-1" value="Circle" style="swimlane;fontStyle=0;childLayout=stackLayout;horizontal=1;startSize=26;fillColor=none;horizontalStack=0;resizeParent=1;resizeParentMax=0;resizeLast=0;collapsible=1;marginBottom=0;whiteSpace=wrap;html=1;" parent="1" vertex="1">
          <mxGeometry x="320" y="200" width="410" height="400" as="geometry" />
        </mxCell>
        <mxCell id="BUnVJWdyUu6qBVvsBm_c-2" value="public Circle(int radius, char borderChar, int x, int y)" style="text;strokeColor=none;fillColor=none;align=left;verticalAlign=top;spacingLeft=4;spacingRight=4;overflow=hidden;rotatable=0;points=[[0,0.5],[1,0.5]];portConstraint=eastwest;whiteSpace=wrap;html=1;" parent="BUnVJWdyUu6qBVvsBm_c-1" vertex="1">
          <mxGeometry y="26" width="410" height="64" as="geometry" />
        </mxCell>
        <mxCell id="BUnVJWdyUu6qBVvsBm_c-3" value="int Radius" style="text;strokeColor=none;fillColor=none;align=left;verticalAlign=top;spacingLeft=4;spacingRight=4;overflow=hidden;rotatable=0;points=[[0,0.5],[1,0.5]];portConstraint=eastwest;whiteSpace=wrap;html=1;" parent="BUnVJWdyUu6qBVvsBm_c-1" vertex="1">
          <mxGeometry y="90" width="410" height="58" as="geometry" />
        </mxCell>
        <mxCell id="BUnVJWdyUu6qBVvsBm_c-4" value="&amp;nbsp;void Draw()" style="text;strokeColor=none;fillColor=none;align=left;verticalAlign=top;spacingLeft=4;spacingRight=4;overflow=hidden;rotatable=0;points=[[0,0.5],[1,0.5]];portConstraint=eastwest;whiteSpace=wrap;html=1;" parent="BUnVJWdyUu6qBVvsBm_c-1" vertex="1">
          <mxGeometry y="148" width="410" height="72" as="geometry" />
        </mxCell>
        <mxCell id="BUnVJWdyUu6qBVvsBm_c-5" value="void DrawOnCanvas(char[,] canvas)" style="text;strokeColor=none;fillColor=none;align=left;verticalAlign=top;spacingLeft=4;spacingRight=4;overflow=hidden;rotatable=0;points=[[0,0.5],[1,0.5]];portConstraint=eastwest;whiteSpace=wrap;html=1;" parent="BUnVJWdyUu6qBVvsBm_c-1" vertex="1">
          <mxGeometry y="220" width="410" height="58" as="geometry" />
        </mxCell>
        <mxCell id="BUnVJWdyUu6qBVvsBm_c-6" value="bool IsInside(int testX, int testY)" style="text;strokeColor=none;fillColor=none;align=left;verticalAlign=top;spacingLeft=4;spacingRight=4;overflow=hidden;rotatable=0;points=[[0,0.5],[1,0.5]];portConstraint=eastwest;whiteSpace=wrap;html=1;" parent="BUnVJWdyUu6qBVvsBm_c-1" vertex="1">
          <mxGeometry y="278" width="410" height="58" as="geometry" />
        </mxCell>
        <mxCell id="0InOw9W3q66LXrT3EfqM-1" value="void Fill(char[,] canvas, char fillChar)" style="text;strokeColor=none;fillColor=none;align=left;verticalAlign=top;spacingLeft=4;spacingRight=4;overflow=hidden;rotatable=0;points=[[0,0.5],[1,0.5]];portConstraint=eastwest;whiteSpace=wrap;html=1;" vertex="1" parent="BUnVJWdyUu6qBVvsBm_c-1">
          <mxGeometry y="336" width="410" height="64" as="geometry" />
        </mxCell>
        <mxCell id="BUnVJWdyUu6qBVvsBm_c-7" value="Shape" style="html=1;whiteSpace=wrap;" parent="1" vertex="1">
          <mxGeometry x="450" y="50" width="110" height="50" as="geometry" />
        </mxCell>
        <mxCell id="BUnVJWdyUu6qBVvsBm_c-8" value="" style="endArrow=diamondThin;endFill=0;endSize=24;html=1;rounded=0;" parent="1" edge="1">
          <mxGeometry width="160" relative="1" as="geometry">
            <mxPoint x="504.5" y="200" as="sourcePoint" />
            <mxPoint x="504.5" y="100" as="targetPoint" />
          </mxGeometry>
        </mxCell>
      </root>
    </mxGraphModel>
  </diagram>
</mxfile>
